<svg xmlns="http://www.w3.org/2000/svg" viewBox="0 0 64 64">
  <rect x="2" y="2" width="60" height="60" rx="13" fill="#18181B"/>

  <!-- Banana adapted from OpenMoji 1F34C (CC BY-SA 4.0) -->
  <g transform="translate(6, 6) scale(0.72)">
    <!-- Main banana body -->
    <path fill="#FBBF24" d="m50.46,50.44c-10.9856,12.9865-25.1263,11.6682-34.8931,6.8853-.3134-.1535-.4574-.5248-.5316-.8658h0c-.1926-.8861.4504-1.7241,1.3547-1.7915,5.1942-.3873,12.9572-2.15,21.7079-9.6086,1.1118-.9477,2.1264-2.0092,3.023-3.1625,4.8861-6.2847,9.1044-14.3883,9.3487-20.9704.0191-.5158.4228-.9361.9386-.9522,3.1225-.0975,2.6958-.2368,2.9494.3666,4.1634,9.9069,2.5163,22.0073-3.8909,30.0972l-.0068.0019Z"/>

    <!-- Darker peel edge -->
    <path fill="#D97706" d="m53.21,19.66c3.7161-1.2359,6.0438,20.6414-1.9939,30.488-11.8,11.01-23.6641,12.652-36.2541,5.914,25.96,5.489,39.47-15.38,38.25-36.4l-.002-.002Z"/>

    <!-- Inner curve line for depth -->
    <path fill="none" stroke="#FDE68A" stroke-linecap="round" stroke-linejoin="round" stroke-width="2" d="m25.79,56.55c16.7-2.905,24.45-11.14,26.67-27.09"/>

    <!-- Stem -->
    <line x1="52.09" x2="51.52" y1="15.49" y2="10.2" fill="none" stroke="#78350F" stroke-linecap="round" stroke-linejoin="round" stroke-width="3"/>
  </g>
</svg>
